<svg xmlns="http://www.w3.org/2000/svg" viewBox="0 0 64 64" role="img" aria-label="TastyBite icon">
  <rect width="64" height="64" rx="16" fill="#1e6f62"/>
  <circle cx="32" cy="32" r="20" fill="#fff7ec"/>
  <path d="M20 21c0-2 3-2 3 0v12c0 2-3 2-3 0V21Zm6 0c0-2 3-2 3 0v12c0 2-3 2-3 0V21Zm6 0c0-2 3-2 3 0v12c0 5-3 9-7 10v6c0 2-4 2-4 0v-6c-4-1-7-5-7-10V21c0-2 3-2 3 0v12c0 3 3 6 6 6s6-3 6-6V21Z" fill="#d96f3d"/>
  <path d="M43 18c5 2 7 8 5 14-1 4-4 7-7 9v8c0 2-4 2-4 0V19c0-1 3-2 6-1Z" fill="#124a41"/>
</svg>
